<svg width="104" height="19" viewBox="0 0 104 19" version="1.1" xmlns="http://www.w3.org/2000/svg" xmlns:xlink="http://www.w3.org/1999/xlink">
<g id="Canvas" transform="translate(-687 561)">
<g id="Union">
<use xlink:href="#path0_fill" transform="translate(687 -561)" fill="#FFFFFF"/>
</g>
</g>
<defs>
<path id="path0_fill" fill-rule="evenodd" d="M 11.4238 18.3214C 10.7384 18.1518 10.3239 17.947 10.112 17.3777C 10.112 17.3777 9.11139 7.80359 8.94867 7.125C 8.78601 6.44641 8.13519 6.44641 7.97247 7.125C 7.80975 7.80359 6.8092 17.3777 6.8092 17.3777C 6.59729 17.947 6.02002 18.1518 5.4975 18.3214C 4.97491 18.491 1.12665 19 1.12665 19C 0.302185 19 -0.241028 18.0963 0.106995 17.3073L 7.43854 0.687744C 7.84308 -0.229248 9.07819 -0.229248 9.48267 0.687744L 16.8141 17.3071C 17.1622 18.0961 16.619 19 15.7944 19C 15.7944 19 12.1091 18.491 11.4238 18.3214ZM 48.5101 16.53C 47.5261 16.53 46.6358 16.359 45.8392 16.017C 45.0426 15.6588 44.3632 15.1783 43.8008 14.5757C 43.2385 13.9732 42.8012 13.2729 42.4888 12.4749C 42.192 11.6769 42.0436 10.8382 42.0436 9.95874C 42.0436 9.04675 42.192 8.19177 42.4888 7.39374C 42.7856 6.57947 43.2151 5.87103 43.7774 5.26843C 44.3397 4.6496 45.0192 4.16101 45.8158 3.80273C 46.628 3.44446 47.5339 3.26532 48.5336 3.26532C 49.5332 3.26532 50.4235 3.44446 51.2045 3.80273C 52.0011 4.16101 52.6727 4.64148 53.2194 5.24402C 53.7817 5.84662 54.2034 6.54688 54.4846 7.34491C 54.7814 8.14288 54.9297 8.97345 54.9297 9.83661C 54.9297 10.0483 54.9219 10.2519 54.9063 10.4473C 54.9063 10.6428 54.8907 10.8056 54.8595 10.9359L 45.3706 10.9359C 45.4175 11.4407 45.5346 11.8886 45.722 12.2795C 45.9095 12.6703 46.1516 13.0042 46.4484 13.281C 46.7451 13.5579 47.0809 13.7696 47.4558 13.9162C 47.8307 14.0627 48.2212 14.136 48.6273 14.136C 49.2521 14.136 49.8378 13.9813 50.3845 13.6719C 50.9468 13.3462 51.3295 12.9227 51.5325 12.4016L 54.2269 13.1833C 53.7739 14.1605 53.0476 14.9666 52.048 15.6017C 51.0639 16.2206 49.8846 16.53 48.5101 16.53ZM 51.6965 8.81061C 51.6184 7.84973 51.2748 7.08429 50.6656 6.51434C 50.0721 5.92804 49.3458 5.63489 48.4867 5.63489C 48.065 5.63489 47.6667 5.71631 47.2918 5.87915C 46.9326 6.02576 46.6124 6.23749 46.3312 6.51434C 46.05 6.7912 45.8158 7.12506 45.6284 7.51587C 45.4565 7.90674 45.355 8.33832 45.3237 8.81061L 51.6965 8.81061ZM 33.0717 10.3007L 36.7032 3.48517L 39.913 3.48517L 39.913 16.2858L 36.9141 16.2858L 36.9141 8.59076L 33.798 14.3559L 32.322 14.3559L 29.2059 8.59076L 29.2059 16.2858L 26.2069 16.2858L 26.2069 3.48517L 29.4401 3.48517L 33.0717 10.3007ZM 60.0053 6.19678L 65.1364 6.19678L 65.1364 3.48517L 56.8892 3.48517L 56.8892 16.2858L 60.0053 16.2858L 60.0053 6.19678ZM 70.0084 16.53C 69.4148 16.53 68.8603 16.4323 68.3448 16.2369C 67.8294 16.0251 67.3843 15.7402 67.0094 15.3819C 66.6345 15.0073 66.3378 14.5757 66.1191 14.0872C 65.916 13.5986 65.8145 13.0612 65.8145 12.4749C 65.8145 11.8723 65.9395 11.3186 66.1894 10.8137C 66.4549 10.2926 66.8141 9.85291 67.2671 9.49463C 67.7357 9.13629 68.2902 8.85944 68.9306 8.66406C 69.571 8.45233 70.2739 8.34644 71.0392 8.34644C 71.5859 8.34644 72.117 8.39532 72.6324 8.49304C 73.1635 8.59076 73.6321 8.72919 74.0382 8.90833L 74.0382 8.17548C 74.0382 7.32861 73.8039 6.67719 73.3353 6.22119C 72.8823 5.7652 72.2029 5.53717 71.2969 5.53717C 70.6409 5.53717 70.0005 5.6593 69.3757 5.90363C 68.751 6.14789 68.1106 6.50616 67.4545 6.97845L 66.494 4.90204C 68.0715 3.81091 69.774 3.26532 71.6016 3.26532C 73.3665 3.26532 74.7333 3.72131 75.7017 4.6333C 76.6857 5.52905 77.1777 6.83191 77.1777 8.54187L 77.1777 12.5237C 77.1777 12.8657 77.2324 13.11 77.3417 13.2566C 77.4667 13.4032 77.6619 13.4846 77.9274 13.5009L 77.9274 16.2858C 77.3964 16.3997 76.9356 16.4567 76.5451 16.4567C 75.9516 16.4567 75.4908 16.3183 75.1628 16.0414C 74.8504 15.7646 74.6552 15.3982 74.577 14.9422L 74.5068 14.2338C 73.9601 14.9829 73.2963 15.5529 72.5153 15.9437C 71.7343 16.3346 70.8987 16.53 70.0084 16.53ZM 70.8987 14.136C 71.4297 14.136 71.9296 14.0383 72.3981 13.8429C 72.8823 13.6475 73.2572 13.3869 73.5227 13.0612C 73.8664 12.7843 74.0382 12.4749 74.0382 12.1329L 74.0382 10.6672C 73.6633 10.5206 73.2572 10.4066 72.8199 10.3252C 72.3825 10.2275 71.9608 10.1786 71.5547 10.1786C 70.7425 10.1786 70.0786 10.374 69.5632 10.7649C 69.0477 11.1395 68.79 11.6199 68.79 12.2062C 68.79 12.7599 68.993 13.2241 69.3992 13.5986C 69.8053 13.9569 70.3051 14.136 70.8987 14.136ZM 88.7325 3.75385C 88.3576 3.57471 87.9437 3.48511 87.4907 3.48511L 80.2277 3.48511L 80.2277 16.2857L 86.6707 16.2857C 88.0452 16.2857 89.123 16.0007 89.9039 15.4307C 90.6849 14.8607 91.0754 13.9894 91.0754 12.8168C 91.0754 11.9374 90.8646 11.2452 90.4428 10.7404C 90.0367 10.2192 89.4744 9.85284 88.7559 9.64111C 89.3963 9.36426 89.8571 8.94897 90.1382 8.39526C 90.4194 7.82526 90.56 7.26337 90.56 6.70966C 90.56 6.26996 90.4819 5.85468 90.3257 5.46381C 90.1851 5.07294 89.9742 4.73096 89.6931 4.43781C 89.4276 4.14465 89.1074 3.91669 88.7325 3.75385ZM 87.069 8.44409C 86.8035 8.70465 86.452 8.83496 86.0147 8.83496L 83.3438 8.83496L 83.3438 5.85468L 86.1084 5.85468C 86.5614 5.85468 86.8972 6.00122 87.1158 6.29437C 87.3502 6.57123 87.4673 6.91327 87.4673 7.32037C 87.4673 7.80896 87.3345 8.18353 87.069 8.44409ZM 87.5142 13.452C 87.2487 13.7614 86.8894 13.9161 86.4364 13.9161L 83.3438 13.9161L 83.3438 10.7404L 86.4598 10.7404C 86.9128 10.7404 87.2721 10.8951 87.5376 11.2045C 87.8032 11.4977 87.9359 11.8723 87.9359 12.3282C 87.9359 12.7679 87.7953 13.1425 87.5142 13.452ZM 100.884 16.2857L 104 16.2857L 104 3.48511L 93.2459 3.48511L 93.2459 16.2857L 96.362 16.2857L 96.362 6.31885L 100.884 6.31885L 100.884 16.2857Z"/>
</defs>
</svg>
